<?xml version="1.0" encoding="utf-8" standalone="no"?>
<!DOCTYPE svg PUBLIC "-//W3C//DTD SVG 1.1//EN"
  "http://www.w3.org/Graphics/SVG/1.1/DTD/svg11.dtd">
<svg xmlns:xlink="http://www.w3.org/1999/xlink" width="28.594953pt" height="438.3pt" viewBox="0 0 28.594953 438.3" xmlns="http://www.w3.org/2000/svg" version="1.1">
 <metadata>
  <rdf:RDF xmlns:dc="http://purl.org/dc/elements/1.1/" xmlns:cc="http://creativecommons.org/ns#" xmlns:rdf="http://www.w3.org/1999/02/22-rdf-syntax-ns#">
   <cc:Work>
    <dc:type rdf:resource="http://purl.org/dc/dcmitype/StillImage"/>
    <dc:date>2025-08-20T07:51:46.816886</dc:date>
    <dc:format>image/svg+xml</dc:format>
    <dc:creator>
     <cc:Agent>
      <dc:title>Matplotlib v3.10.0, https://matplotlib.org/</dc:title>
     </cc:Agent>
    </dc:creator>
   </cc:Work>
  </rdf:RDF>
 </metadata>
 <defs>
  <style type="text/css">*{stroke-linejoin: round; stroke-linecap: butt}</style>
 </defs>
 <g id="figure_1">
  <g id="patch_1">
   <path d="M 0 438.3 
L 28.594953 438.3 
L 28.594953 0 
L 0 0 
L 0 438.3 
z
" style="fill: none"/>
  </g>
  <g id="axes_1">
   <g id="patch_2">
    <path d="M 7.2 431.1 
L 21.394953 431.1 
L 21.394953 7.2 
L 7.2 7.2 
L 7.2 431.1 
z
" style="fill: none"/>
   </g>
   <g id="PatchCollection_1">
    <path d="M 14.770641 427.314679 
L 13.824311 425.675587 
L 11.931651 425.675587 
L 10.985321 427.314679 
L 11.931651 428.953771 
L 13.824311 428.953771 
z
" clip-path="url(#pf6fe64684d)" style="fill: #02343f; stroke: #022a32; stroke-width: 0.5"/>
    <path d="M 14.770641 424.036495 
L 13.824311 422.397403 
L 11.931651 422.397403 
L 10.985321 424.036495 
L 11.931651 425.675587 
L 13.824311 425.675587 
z
" clip-path="url(#pf6fe64684d)" style="fill: #02343f; stroke: #022a32; stroke-width: 0.5"/>
    <path d="M 14.770641 420.758311 
L 13.824311 419.119219 
L 11.931651 419.119219 
L 10.985321 420.758311 
L 11.931651 422.397403 
L 13.824311 422.397403 
z
" clip-path="url(#pf6fe64684d)" style="fill: #02343f; stroke: #022a32; stroke-width: 0.5"/>
    <path d="M 14.770641 417.480127 
L 13.824311 415.841036 
L 11.931651 415.841036 
L 10.985321 417.480127 
L 11.931651 419.119219 
L 13.824311 419.119219 
z
" clip-path="url(#pf6fe64684d)" style="fill: #02343f; stroke: #022a32; stroke-width: 0.5"/>
    <path d="M 14.770641 414.201944 
L 13.824311 412.562852 
L 11.931651 412.562852 
L 10.985321 414.201944 
L 11.931651 415.841036 
L 13.824311 415.841036 
z
" clip-path="url(#pf6fe64684d)" style="fill: #02343f; stroke: #022a32; stroke-width: 0.5"/>
    <path d="M 14.770641 410.92376 
L 13.824311 409.284668 
L 11.931651 409.284668 
L 10.985321 410.92376 
L 11.931651 412.562852 
L 13.824311 412.562852 
z
" clip-path="url(#pf6fe64684d)" style="fill: #02343f; stroke: #022a32; stroke-width: 0.5"/>
    <path d="M 14.770641 407.645576 
L 13.824311 406.006484 
L 11.931651 406.006484 
L 10.985321 407.645576 
L 11.931651 409.284668 
L 13.824311 409.284668 
z
" clip-path="url(#pf6fe64684d)" style="fill: #02343f; stroke: #022a32; stroke-width: 0.5"/>
    <path d="M 14.770641 404.367392 
L 13.824311 402.7283 
L 11.931651 402.7283 
L 10.985321 404.367392 
L 11.931651 406.006484 
L 13.824311 406.006484 
z
" clip-path="url(#pf6fe64684d)" style="fill: #02343f; stroke: #022a32; stroke-width: 0.5"/>
    <path d="M 14.770641 401.089208 
L 13.824311 399.450116 
L 11.931651 399.450116 
L 10.985321 401.089208 
L 11.931651 402.7283 
L 13.824311 402.7283 
z
" clip-path="url(#pf6fe64684d)" style="fill: #02343f; stroke: #022a32; stroke-width: 0.5"/>
    <path d="M 14.770641 397.811024 
L 13.824311 396.171932 
L 11.931651 396.171932 
L 10.985321 397.811024 
L 11.931651 399.450116 
L 13.824311 399.450116 
z
" clip-path="url(#pf6fe64684d)" style="fill: #02343f; stroke: #022a32; stroke-width: 0.5"/>
    <path d="M 14.770641 394.53284 
L 13.824311 392.893748 
L 11.931651 392.893748 
L 10.985321 394.53284 
L 11.931651 396.171932 
L 13.824311 396.171932 
z
" clip-path="url(#pf6fe64684d)" style="fill: #02343f; stroke: #022a32; stroke-width: 0.5"/>
    <path d="M 14.770641 391.254656 
L 13.824311 389.615564 
L 11.931651 389.615564 
L 10.985321 391.254656 
L 11.931651 392.893748 
L 13.824311 392.893748 
z
" clip-path="url(#pf6fe64684d)" style="fill: #02343f; stroke: #022a32; stroke-width: 0.5"/>
    <path d="M 14.770641 387.976472 
L 13.824311 386.33738 
L 11.931651 386.33738 
L 10.985321 387.976472 
L 11.931651 389.615564 
L 13.824311 389.615564 
z
" clip-path="url(#pf6fe64684d)" style="fill: #02343f; stroke: #022a32; stroke-width: 0.5"/>
    <path d="M 14.770641 384.698288 
L 13.824311 383.059196 
L 11.931651 383.059196 
L 10.985321 384.698288 
L 11.931651 386.33738 
L 13.824311 386.33738 
z
" clip-path="url(#pf6fe64684d)" style="fill: #02343f; stroke: #022a32; stroke-width: 0.5"/>
    <path d="M 14.770641 381.420104 
L 13.824311 379.781012 
L 11.931651 379.781012 
L 10.985321 381.420104 
L 11.931651 383.059196 
L 13.824311 383.059196 
z
" clip-path="url(#pf6fe64684d)" style="fill: #02343f; stroke: #022a32; stroke-width: 0.5"/>
    <path d="M 14.770641 378.14192 
L 13.824311 376.502828 
L 11.931651 376.502828 
L 10.985321 378.14192 
L 11.931651 379.781012 
L 13.824311 379.781012 
z
" clip-path="url(#pf6fe64684d)" style="fill: #02343f; stroke: #022a32; stroke-width: 0.5"/>
    <path d="M 14.770641 374.863736 
L 13.824311 373.224644 
L 11.931651 373.224644 
L 10.985321 374.863736 
L 11.931651 376.502828 
L 13.824311 376.502828 
z
" clip-path="url(#pf6fe64684d)" style="fill: #02343f; stroke: #022a32; stroke-width: 0.5"/>
    <path d="M 14.770641 371.585553 
L 13.824311 369.946461 
L 11.931651 369.946461 
L 10.985321 371.585553 
L 11.931651 373.224644 
L 13.824311 373.224644 
z
" clip-path="url(#pf6fe64684d)" style="fill: #02343f; stroke: #022a32; stroke-width: 0.5"/>
    <path d="M 14.770641 368.307369 
L 13.824311 366.668277 
L 11.931651 366.668277 
L 10.985321 368.307369 
L 11.931651 369.946461 
L 13.824311 369.946461 
z
" clip-path="url(#pf6fe64684d)" style="fill: #02343f; stroke: #022a32; stroke-width: 0.5"/>
    <path d="M 14.770641 365.029185 
L 13.824311 363.390093 
L 11.931651 363.390093 
L 10.985321 365.029185 
L 11.931651 366.668277 
L 13.824311 366.668277 
z
" clip-path="url(#pf6fe64684d)" style="fill: #02343f; stroke: #022a32; stroke-width: 0.5"/>
    <path d="M 14.770641 361.751001 
L 13.824311 360.111909 
L 11.931651 360.111909 
L 10.985321 361.751001 
L 11.931651 363.390093 
L 13.824311 363.390093 
z
" clip-path="url(#pf6fe64684d)" style="fill: #02343f; stroke: #022a32; stroke-width: 0.5"/>
    <path d="M 14.770641 358.472817 
L 13.824311 356.833725 
L 11.931651 356.833725 
L 10.985321 358.472817 
L 11.931651 360.111909 
L 13.824311 360.111909 
z
" clip-path="url(#pf6fe64684d)" style="fill: #02343f; stroke: #022a32; stroke-width: 0.5"/>
    <path d="M 14.770641 355.194633 
L 13.824311 353.555541 
L 11.931651 353.555541 
L 10.985321 355.194633 
L 11.931651 356.833725 
L 13.824311 356.833725 
z
" clip-path="url(#pf6fe64684d)" style="fill: #02343f; stroke: #022a32; stroke-width: 0.5"/>
    <path d="M 14.770641 351.916449 
L 13.824311 350.277357 
L 11.931651 350.277357 
L 10.985321 351.916449 
L 11.931651 353.555541 
L 13.824311 353.555541 
z
" clip-path="url(#pf6fe64684d)" style="fill: #02343f; stroke: #022a32; stroke-width: 0.5"/>
    <path d="M 14.770641 348.638265 
L 13.824311 346.999173 
L 11.931651 346.999173 
L 10.985321 348.638265 
L 11.931651 350.277357 
L 13.824311 350.277357 
z
" clip-path="url(#pf6fe64684d)" style="fill: #02343f; stroke: #022a32; stroke-width: 0.5"/>
    <path d="M 14.770641 345.360081 
L 13.824311 343.720989 
L 11.931651 343.720989 
L 10.985321 345.360081 
L 11.931651 346.999173 
L 13.824311 346.999173 
z
" clip-path="url(#pf6fe64684d)" style="fill: #02343f; stroke: #022a32; stroke-width: 0.5"/>
    <path d="M 14.770641 342.081897 
L 13.824311 340.442805 
L 11.931651 340.442805 
L 10.985321 342.081897 
L 11.931651 343.720989 
L 13.824311 343.720989 
z
" clip-path="url(#pf6fe64684d)" style="fill: #02343f; stroke: #022a32; stroke-width: 0.5"/>
    <path d="M 14.770641 338.803713 
L 13.824311 337.164621 
L 11.931651 337.164621 
L 10.985321 338.803713 
L 11.931651 340.442805 
L 13.824311 340.442805 
z
" clip-path="url(#pf6fe64684d)" style="fill: #02343f; stroke: #022a32; stroke-width: 0.5"/>
    <path d="M 14.770641 335.525529 
L 13.824311 333.886437 
L 11.931651 333.886437 
L 10.985321 335.525529 
L 11.931651 337.164621 
L 13.824311 337.164621 
z
" clip-path="url(#pf6fe64684d)" style="fill: #02343f; stroke: #022a32; stroke-width: 0.5"/>
    <path d="M 14.770641 332.247345 
L 13.824311 330.608253 
L 11.931651 330.608253 
L 10.985321 332.247345 
L 11.931651 333.886437 
L 13.824311 333.886437 
z
" clip-path="url(#pf6fe64684d)" style="fill: #02343f; stroke: #022a32; stroke-width: 0.5"/>
    <path d="M 14.770641 328.969161 
L 13.824311 327.33007 
L 11.931651 327.33007 
L 10.985321 328.969161 
L 11.931651 330.608253 
L 13.824311 330.608253 
z
" clip-path="url(#pf6fe64684d)" style="fill: #02343f; stroke: #022a32; stroke-width: 0.5"/>
    <path d="M 14.770641 325.690978 
L 13.824311 324.051886 
L 11.931651 324.051886 
L 10.985321 325.690978 
L 11.931651 327.33007 
L 13.824311 327.33007 
z
" clip-path="url(#pf6fe64684d)" style="fill: #02343f; stroke: #022a32; stroke-width: 0.5"/>
    <path d="M 14.770641 269.961851 
L 13.824311 268.322759 
L 11.931651 268.322759 
L 10.985321 269.961851 
L 11.931651 271.600943 
L 13.824311 271.600943 
z
" clip-path="url(#pf6fe64684d)" style="fill: #02343f; stroke: #022a32; stroke-width: 0.5"/>
    <path d="M 14.770641 266.683667 
L 13.824311 265.044575 
L 11.931651 265.044575 
L 10.985321 266.683667 
L 11.931651 268.322759 
L 13.824311 268.322759 
z
" clip-path="url(#pf6fe64684d)" style="fill: #02343f; stroke: #022a32; stroke-width: 0.5"/>
    <path d="M 14.770641 263.405483 
L 13.824311 261.766391 
L 11.931651 261.766391 
L 10.985321 263.405483 
L 11.931651 265.044575 
L 13.824311 265.044575 
z
" clip-path="url(#pf6fe64684d)" style="fill: #02343f; stroke: #022a32; stroke-width: 0.5"/>
    <path d="M 14.770641 260.127299 
L 13.824311 258.488207 
L 11.931651 258.488207 
L 10.985321 260.127299 
L 11.931651 261.766391 
L 13.824311 261.766391 
z
" clip-path="url(#pf6fe64684d)" style="fill: #02343f; stroke: #022a32; stroke-width: 0.5"/>
    <path d="M 14.770641 256.849115 
L 13.824311 255.210023 
L 11.931651 255.210023 
L 10.985321 256.849115 
L 11.931651 258.488207 
L 13.824311 258.488207 
z
" clip-path="url(#pf6fe64684d)" style="fill: #02343f; stroke: #022a32; stroke-width: 0.5"/>
    <path d="M 14.770641 253.570931 
L 13.824311 251.931839 
L 11.931651 251.931839 
L 10.985321 253.570931 
L 11.931651 255.210023 
L 13.824311 255.210023 
z
" clip-path="url(#pf6fe64684d)" style="fill: #02343f; stroke: #022a32; stroke-width: 0.5"/>
    <path d="M 14.770641 250.292747 
L 13.824311 248.653655 
L 11.931651 248.653655 
L 10.985321 250.292747 
L 11.931651 251.931839 
L 13.824311 251.931839 
z
" clip-path="url(#pf6fe64684d)" style="fill: #02343f; stroke: #022a32; stroke-width: 0.5"/>
    <path d="M 14.770641 247.014563 
L 13.824311 245.375471 
L 11.931651 245.375471 
L 10.985321 247.014563 
L 11.931651 248.653655 
L 13.824311 248.653655 
z
" clip-path="url(#pf6fe64684d)" style="fill: #02343f; stroke: #022a32; stroke-width: 0.5"/>
    <path d="M 14.770641 243.736379 
L 13.824311 242.097287 
L 11.931651 242.097287 
L 10.985321 243.736379 
L 11.931651 245.375471 
L 13.824311 245.375471 
z
" clip-path="url(#pf6fe64684d)" style="fill: #02343f; stroke: #022a32; stroke-width: 0.5"/>
    <path d="M 14.770641 240.458196 
L 13.824311 238.819104 
L 11.931651 238.819104 
L 10.985321 240.458196 
L 11.931651 242.097287 
L 13.824311 242.097287 
z
" clip-path="url(#pf6fe64684d)" style="fill: #02343f; stroke: #022a32; stroke-width: 0.5"/>
    <path d="M 14.770641 237.180012 
L 13.824311 235.54092 
L 11.931651 235.54092 
L 10.985321 237.180012 
L 11.931651 238.819104 
L 13.824311 238.819104 
z
" clip-path="url(#pf6fe64684d)" style="fill: #02343f; stroke: #022a32; stroke-width: 0.5"/>
    <path d="M 14.770641 233.901828 
L 13.824311 232.262736 
L 11.931651 232.262736 
L 10.985321 233.901828 
L 11.931651 235.54092 
L 13.824311 235.54092 
z
" clip-path="url(#pf6fe64684d)" style="fill: #02343f; stroke: #022a32; stroke-width: 0.5"/>
    <path d="M 14.770641 230.623644 
L 13.824311 228.984552 
L 11.931651 228.984552 
L 10.985321 230.623644 
L 11.931651 232.262736 
L 13.824311 232.262736 
z
" clip-path="url(#pf6fe64684d)" style="fill: #02343f; stroke: #022a32; stroke-width: 0.5"/>
    <path d="M 14.770641 227.34546 
L 13.824311 225.706368 
L 11.931651 225.706368 
L 10.985321 227.34546 
L 11.931651 228.984552 
L 13.824311 228.984552 
z
" clip-path="url(#pf6fe64684d)" style="fill: #02343f; stroke: #022a32; stroke-width: 0.5"/>
    <path d="M 14.770641 224.067276 
L 13.824311 222.428184 
L 11.931651 222.428184 
L 10.985321 224.067276 
L 11.931651 225.706368 
L 13.824311 225.706368 
z
" clip-path="url(#pf6fe64684d)" style="fill: #02343f; stroke: #022a32; stroke-width: 0.5"/>
    <path d="M 14.770641 220.789092 
L 13.824311 219.15 
L 11.931651 219.15 
L 10.985321 220.789092 
L 11.931651 222.428184 
L 13.824311 222.428184 
z
" clip-path="url(#pf6fe64684d)" style="fill: #02343f; stroke: #022a32; stroke-width: 0.5"/>
    <path d="M 14.770641 217.510908 
L 13.824311 215.871816 
L 11.931651 215.871816 
L 10.985321 217.510908 
L 11.931651 219.15 
L 13.824311 219.15 
z
" clip-path="url(#pf6fe64684d)" style="fill: #02343f; stroke: #022a32; stroke-width: 0.5"/>
    <path d="M 14.770641 214.232724 
L 13.824311 212.593632 
L 11.931651 212.593632 
L 10.985321 214.232724 
L 11.931651 215.871816 
L 13.824311 215.871816 
z
" clip-path="url(#pf6fe64684d)" style="fill: #02343f; stroke: #022a32; stroke-width: 0.5"/>
    <path d="M 14.770641 210.95454 
L 13.824311 209.315448 
L 11.931651 209.315448 
L 10.985321 210.95454 
L 11.931651 212.593632 
L 13.824311 212.593632 
z
" clip-path="url(#pf6fe64684d)" style="fill: #02343f; stroke: #022a32; stroke-width: 0.5"/>
    <path d="M 14.770641 207.676356 
L 13.824311 206.037264 
L 11.931651 206.037264 
L 10.985321 207.676356 
L 11.931651 209.315448 
L 13.824311 209.315448 
z
" clip-path="url(#pf6fe64684d)" style="fill: #02343f; stroke: #022a32; stroke-width: 0.5"/>
    <path d="M 14.770641 204.398172 
L 13.824311 202.75908 
L 11.931651 202.75908 
L 10.985321 204.398172 
L 11.931651 206.037264 
L 13.824311 206.037264 
z
" clip-path="url(#pf6fe64684d)" style="fill: #02343f; stroke: #022a32; stroke-width: 0.5"/>
    <path d="M 14.770641 201.119988 
L 13.824311 199.480896 
L 11.931651 199.480896 
L 10.985321 201.119988 
L 11.931651 202.75908 
L 13.824311 202.75908 
z
" clip-path="url(#pf6fe64684d)" style="fill: #02343f; stroke: #022a32; stroke-width: 0.5"/>
    <path d="M 14.770641 197.841804 
L 13.824311 196.202713 
L 11.931651 196.202713 
L 10.985321 197.841804 
L 11.931651 199.480896 
L 13.824311 199.480896 
z
" clip-path="url(#pf6fe64684d)" style="fill: #02343f; stroke: #022a32; stroke-width: 0.5"/>
    <path d="M 14.770641 194.563621 
L 13.824311 192.924529 
L 11.931651 192.924529 
L 10.985321 194.563621 
L 11.931651 196.202713 
L 13.824311 196.202713 
z
" clip-path="url(#pf6fe64684d)" style="fill: #02343f; stroke: #022a32; stroke-width: 0.5"/>
    <path d="M 14.770641 191.285437 
L 13.824311 189.646345 
L 11.931651 189.646345 
L 10.985321 191.285437 
L 11.931651 192.924529 
L 13.824311 192.924529 
z
" clip-path="url(#pf6fe64684d)" style="fill: #02343f; stroke: #022a32; stroke-width: 0.5"/>
    <path d="M 14.770641 188.007253 
L 13.824311 186.368161 
L 11.931651 186.368161 
L 10.985321 188.007253 
L 11.931651 189.646345 
L 13.824311 189.646345 
z
" clip-path="url(#pf6fe64684d)" style="fill: #02343f; stroke: #022a32; stroke-width: 0.5"/>
    <path d="M 14.770641 184.729069 
L 13.824311 183.089977 
L 11.931651 183.089977 
L 10.985321 184.729069 
L 11.931651 186.368161 
L 13.824311 186.368161 
z
" clip-path="url(#pf6fe64684d)" style="fill: #02343f; stroke: #022a32; stroke-width: 0.5"/>
    <path d="M 14.770641 181.450885 
L 13.824311 179.811793 
L 11.931651 179.811793 
L 10.985321 181.450885 
L 11.931651 183.089977 
L 13.824311 183.089977 
z
" clip-path="url(#pf6fe64684d)" style="fill: #02343f; stroke: #022a32; stroke-width: 0.5"/>
    <path d="M 14.770641 178.172701 
L 13.824311 176.533609 
L 11.931651 176.533609 
L 10.985321 178.172701 
L 11.931651 179.811793 
L 13.824311 179.811793 
z
" clip-path="url(#pf6fe64684d)" style="fill: #02343f; stroke: #022a32; stroke-width: 0.5"/>
    <path d="M 14.770641 174.894517 
L 13.824311 173.255425 
L 11.931651 173.255425 
L 10.985321 174.894517 
L 11.931651 176.533609 
L 13.824311 176.533609 
z
" clip-path="url(#pf6fe64684d)" style="fill: #02343f; stroke: #022a32; stroke-width: 0.5"/>
    <path d="M 14.770641 171.616333 
L 13.824311 169.977241 
L 11.931651 169.977241 
L 10.985321 171.616333 
L 11.931651 173.255425 
L 13.824311 173.255425 
z
" clip-path="url(#pf6fe64684d)" style="fill: #02343f; stroke: #022a32; stroke-width: 0.5"/>
    <path d="M 14.770641 168.338149 
L 13.824311 166.699057 
L 11.931651 166.699057 
L 10.985321 168.338149 
L 11.931651 169.977241 
L 13.824311 169.977241 
z
" clip-path="url(#pf6fe64684d)" style="fill: #02343f; stroke: #022a32; stroke-width: 0.5"/>
   </g>
   <g id="matplotlib.axis_1"/>
   <g id="matplotlib.axis_2"/>
   <g id="PatchCollection_2">
    <path d="M 14.770641 322.412794 
L 13.824311 320.773702 
L 11.931651 320.773702 
L 10.985321 322.412794 
L 11.931651 324.051886 
L 13.824311 324.051886 
z
" clip-path="url(#pf6fe64684d)" style="fill: #d35400; stroke: #ffffff"/>
    <path d="M 14.770641 319.13461 
L 13.824311 317.495518 
L 11.931651 317.495518 
L 10.985321 319.13461 
L 11.931651 320.773702 
L 13.824311 320.773702 
z
" clip-path="url(#pf6fe64684d)" style="fill: #d35400; stroke: #ffffff"/>
    <path d="M 14.770641 315.856426 
L 13.824311 314.217334 
L 11.931651 314.217334 
L 10.985321 315.856426 
L 11.931651 317.495518 
L 13.824311 317.495518 
z
" clip-path="url(#pf6fe64684d)" style="fill: #d35400; stroke: #ffffff"/>
    <path d="M 14.770641 312.578242 
L 13.824311 310.93915 
L 11.931651 310.93915 
L 10.985321 312.578242 
L 11.931651 314.217334 
L 13.824311 314.217334 
z
" clip-path="url(#pf6fe64684d)" style="fill: #d35400; stroke: #ffffff"/>
    <path d="M 14.770641 309.300058 
L 13.824311 307.660966 
L 11.931651 307.660966 
L 10.985321 309.300058 
L 11.931651 310.93915 
L 13.824311 310.93915 
z
" clip-path="url(#pf6fe64684d)" style="fill: #d35400; stroke: #ffffff"/>
    <path d="M 14.770641 306.021874 
L 13.824311 304.382782 
L 11.931651 304.382782 
L 10.985321 306.021874 
L 11.931651 307.660966 
L 13.824311 307.660966 
z
" clip-path="url(#pf6fe64684d)" style="fill: #d35400; stroke: #ffffff"/>
    <path d="M 14.770641 302.74369 
L 13.824311 301.104598 
L 11.931651 301.104598 
L 10.985321 302.74369 
L 11.931651 304.382782 
L 13.824311 304.382782 
z
" clip-path="url(#pf6fe64684d)" style="fill: #d35400; stroke: #ffffff"/>
    <path d="M 14.770641 299.465506 
L 13.824311 297.826414 
L 11.931651 297.826414 
L 10.985321 299.465506 
L 11.931651 301.104598 
L 13.824311 301.104598 
z
" clip-path="url(#pf6fe64684d)" style="fill: #d35400; stroke: #ffffff"/>
    <path d="M 14.770641 296.187322 
L 13.824311 294.54823 
L 11.931651 294.54823 
L 10.985321 296.187322 
L 11.931651 297.826414 
L 13.824311 297.826414 
z
" clip-path="url(#pf6fe64684d)" style="fill: #d35400; stroke: #ffffff"/>
    <path d="M 14.770641 292.909138 
L 13.824311 291.270046 
L 11.931651 291.270046 
L 10.985321 292.909138 
L 11.931651 294.54823 
L 13.824311 294.54823 
z
" clip-path="url(#pf6fe64684d)" style="fill: #d35400; stroke: #ffffff"/>
    <path d="M 14.770641 289.630954 
L 13.824311 287.991862 
L 11.931651 287.991862 
L 10.985321 289.630954 
L 11.931651 291.270046 
L 13.824311 291.270046 
z
" clip-path="url(#pf6fe64684d)" style="fill: #d35400; stroke: #ffffff"/>
    <path d="M 14.770641 286.35277 
L 13.824311 284.713679 
L 11.931651 284.713679 
L 10.985321 286.35277 
L 11.931651 287.991862 
L 13.824311 287.991862 
z
" clip-path="url(#pf6fe64684d)" style="fill: #d35400; stroke: #ffffff"/>
    <path d="M 14.770641 283.074587 
L 13.824311 281.435495 
L 11.931651 281.435495 
L 10.985321 283.074587 
L 11.931651 284.713679 
L 13.824311 284.713679 
z
" clip-path="url(#pf6fe64684d)" style="fill: #d35400; stroke: #ffffff"/>
    <path d="M 14.770641 279.796403 
L 13.824311 278.157311 
L 11.931651 278.157311 
L 10.985321 279.796403 
L 11.931651 281.435495 
L 13.824311 281.435495 
z
" clip-path="url(#pf6fe64684d)" style="fill: #d35400; stroke: #ffffff"/>
    <path d="M 14.770641 276.518219 
L 13.824311 274.879127 
L 11.931651 274.879127 
L 10.985321 276.518219 
L 11.931651 278.157311 
L 13.824311 278.157311 
z
" clip-path="url(#pf6fe64684d)" style="fill: #d35400; stroke: #ffffff"/>
    <path d="M 14.770641 273.240035 
L 13.824311 271.600943 
L 11.931651 271.600943 
L 10.985321 273.240035 
L 11.931651 274.879127 
L 13.824311 274.879127 
z
" clip-path="url(#pf6fe64684d)" style="fill: #d35400; stroke: #ffffff"/>
    <path d="M 14.770641 165.059965 
L 13.824311 163.420873 
L 11.931651 163.420873 
L 10.985321 165.059965 
L 11.931651 166.699057 
L 13.824311 166.699057 
z
" clip-path="url(#pf6fe64684d)" style="fill: #d35400; stroke: #ffffff"/>
    <path d="M 14.770641 161.781781 
L 13.824311 160.142689 
L 11.931651 160.142689 
L 10.985321 161.781781 
L 11.931651 163.420873 
L 13.824311 163.420873 
z
" clip-path="url(#pf6fe64684d)" style="fill: #d35400; stroke: #ffffff"/>
    <path d="M 14.770641 158.503597 
L 13.824311 156.864505 
L 11.931651 156.864505 
L 10.985321 158.503597 
L 11.931651 160.142689 
L 13.824311 160.142689 
z
" clip-path="url(#pf6fe64684d)" style="fill: #d35400; stroke: #ffffff"/>
    <path d="M 14.770641 155.225413 
L 13.824311 153.586321 
L 11.931651 153.586321 
L 10.985321 155.225413 
L 11.931651 156.864505 
L 13.824311 156.864505 
z
" clip-path="url(#pf6fe64684d)" style="fill: #d35400; stroke: #ffffff"/>
    <path d="M 14.770641 151.94723 
L 13.824311 150.308138 
L 11.931651 150.308138 
L 10.985321 151.94723 
L 11.931651 153.586321 
L 13.824311 153.586321 
z
" clip-path="url(#pf6fe64684d)" style="fill: #d35400; stroke: #ffffff"/>
    <path d="M 14.770641 148.669046 
L 13.824311 147.029954 
L 11.931651 147.029954 
L 10.985321 148.669046 
L 11.931651 150.308138 
L 13.824311 150.308138 
z
" clip-path="url(#pf6fe64684d)" style="fill: #d35400; stroke: #ffffff"/>
    <path d="M 14.770641 145.390862 
L 13.824311 143.75177 
L 11.931651 143.75177 
L 10.985321 145.390862 
L 11.931651 147.029954 
L 13.824311 147.029954 
z
" clip-path="url(#pf6fe64684d)" style="fill: #d35400; stroke: #ffffff"/>
    <path d="M 14.770641 142.112678 
L 13.824311 140.473586 
L 11.931651 140.473586 
L 10.985321 142.112678 
L 11.931651 143.75177 
L 13.824311 143.75177 
z
" clip-path="url(#pf6fe64684d)" style="fill: #d35400; stroke: #ffffff"/>
    <path d="M 14.770641 138.834494 
L 13.824311 137.195402 
L 11.931651 137.195402 
L 10.985321 138.834494 
L 11.931651 140.473586 
L 13.824311 140.473586 
z
" clip-path="url(#pf6fe64684d)" style="fill: #d35400; stroke: #ffffff"/>
    <path d="M 14.770641 135.55631 
L 13.824311 133.917218 
L 11.931651 133.917218 
L 10.985321 135.55631 
L 11.931651 137.195402 
L 13.824311 137.195402 
z
" clip-path="url(#pf6fe64684d)" style="fill: #d35400; stroke: #ffffff"/>
    <path d="M 14.770641 132.278126 
L 13.824311 130.639034 
L 11.931651 130.639034 
L 10.985321 132.278126 
L 11.931651 133.917218 
L 13.824311 133.917218 
z
" clip-path="url(#pf6fe64684d)" style="fill: #d35400; stroke: #ffffff"/>
    <path d="M 14.770641 128.999942 
L 13.824311 127.36085 
L 11.931651 127.36085 
L 10.985321 128.999942 
L 11.931651 130.639034 
L 13.824311 130.639034 
z
" clip-path="url(#pf6fe64684d)" style="fill: #d35400; stroke: #ffffff"/>
    <path d="M 14.770641 125.721758 
L 13.824311 124.082666 
L 11.931651 124.082666 
L 10.985321 125.721758 
L 11.931651 127.36085 
L 13.824311 127.36085 
z
" clip-path="url(#pf6fe64684d)" style="fill: #d35400; stroke: #ffffff"/>
    <path d="M 14.770641 122.443574 
L 13.824311 120.804482 
L 11.931651 120.804482 
L 10.985321 122.443574 
L 11.931651 124.082666 
L 13.824311 124.082666 
z
" clip-path="url(#pf6fe64684d)" style="fill: #d35400; stroke: #ffffff"/>
    <path d="M 14.770641 119.16539 
L 13.824311 117.526298 
L 11.931651 117.526298 
L 10.985321 119.16539 
L 11.931651 120.804482 
L 13.824311 120.804482 
z
" clip-path="url(#pf6fe64684d)" style="fill: #d35400; stroke: #ffffff"/>
    <path d="M 14.770641 115.887206 
L 13.824311 114.248114 
L 11.931651 114.248114 
L 10.985321 115.887206 
L 11.931651 117.526298 
L 13.824311 117.526298 
z
" clip-path="url(#pf6fe64684d)" style="fill: #d35400; stroke: #ffffff"/>
    <path d="M 14.770641 112.609022 
L 13.824311 110.96993 
L 11.931651 110.96993 
L 10.985321 112.609022 
L 11.931651 114.248114 
L 13.824311 114.248114 
z
" clip-path="url(#pf6fe64684d)" style="fill: #d35400; stroke: #ffffff"/>
    <path d="M 14.770641 109.330839 
L 13.824311 107.691747 
L 11.931651 107.691747 
L 10.985321 109.330839 
L 11.931651 110.96993 
L 13.824311 110.96993 
z
" clip-path="url(#pf6fe64684d)" style="fill: #d35400; stroke: #ffffff"/>
    <path d="M 14.770641 106.052655 
L 13.824311 104.413563 
L 11.931651 104.413563 
L 10.985321 106.052655 
L 11.931651 107.691747 
L 13.824311 107.691747 
z
" clip-path="url(#pf6fe64684d)" style="fill: #d35400; stroke: #ffffff"/>
    <path d="M 14.770641 102.774471 
L 13.824311 101.135379 
L 11.931651 101.135379 
L 10.985321 102.774471 
L 11.931651 104.413563 
L 13.824311 104.413563 
z
" clip-path="url(#pf6fe64684d)" style="fill: #d35400; stroke: #ffffff"/>
    <path d="M 14.770641 99.496287 
L 13.824311 97.857195 
L 11.931651 97.857195 
L 10.985321 99.496287 
L 11.931651 101.135379 
L 13.824311 101.135379 
z
" clip-path="url(#pf6fe64684d)" style="fill: #d35400; stroke: #ffffff"/>
    <path d="M 14.770641 96.218103 
L 13.824311 94.579011 
L 11.931651 94.579011 
L 10.985321 96.218103 
L 11.931651 97.857195 
L 13.824311 97.857195 
z
" clip-path="url(#pf6fe64684d)" style="fill: #d35400; stroke: #ffffff"/>
    <path d="M 14.770641 92.939919 
L 13.824311 91.300827 
L 11.931651 91.300827 
L 10.985321 92.939919 
L 11.931651 94.579011 
L 13.824311 94.579011 
z
" clip-path="url(#pf6fe64684d)" style="fill: #d35400; stroke: #ffffff"/>
    <path d="M 14.770641 89.661735 
L 13.824311 88.022643 
L 11.931651 88.022643 
L 10.985321 89.661735 
L 11.931651 91.300827 
L 13.824311 91.300827 
z
" clip-path="url(#pf6fe64684d)" style="fill: #d35400; stroke: #ffffff"/>
    <path d="M 14.770641 86.383551 
L 13.824311 84.744459 
L 11.931651 84.744459 
L 10.985321 86.383551 
L 11.931651 88.022643 
L 13.824311 88.022643 
z
" clip-path="url(#pf6fe64684d)" style="fill: #d35400; stroke: #ffffff"/>
    <path d="M 14.770641 83.105367 
L 13.824311 81.466275 
L 11.931651 81.466275 
L 10.985321 83.105367 
L 11.931651 84.744459 
L 13.824311 84.744459 
z
" clip-path="url(#pf6fe64684d)" style="fill: #d35400; stroke: #ffffff"/>
    <path d="M 14.770641 79.827183 
L 13.824311 78.188091 
L 11.931651 78.188091 
L 10.985321 79.827183 
L 11.931651 81.466275 
L 13.824311 81.466275 
z
" clip-path="url(#pf6fe64684d)" style="fill: #d35400; stroke: #ffffff"/>
    <path d="M 14.770641 76.548999 
L 13.824311 74.909907 
L 11.931651 74.909907 
L 10.985321 76.548999 
L 11.931651 78.188091 
L 13.824311 78.188091 
z
" clip-path="url(#pf6fe64684d)" style="fill: #d35400; stroke: #ffffff"/>
    <path d="M 14.770641 73.270815 
L 13.824311 71.631723 
L 11.931651 71.631723 
L 10.985321 73.270815 
L 11.931651 74.909907 
L 13.824311 74.909907 
z
" clip-path="url(#pf6fe64684d)" style="fill: #d35400; stroke: #ffffff"/>
    <path d="M 14.770641 69.992631 
L 13.824311 68.353539 
L 11.931651 68.353539 
L 10.985321 69.992631 
L 11.931651 71.631723 
L 13.824311 71.631723 
z
" clip-path="url(#pf6fe64684d)" style="fill: #d35400; stroke: #ffffff"/>
    <path d="M 14.770641 66.714447 
L 13.824311 65.075356 
L 11.931651 65.075356 
L 10.985321 66.714447 
L 11.931651 68.353539 
L 13.824311 68.353539 
z
" clip-path="url(#pf6fe64684d)" style="fill: #d35400; stroke: #ffffff"/>
    <path d="M 14.770641 63.436264 
L 13.824311 61.797172 
L 11.931651 61.797172 
L 10.985321 63.436264 
L 11.931651 65.075356 
L 13.824311 65.075356 
z
" clip-path="url(#pf6fe64684d)" style="fill: #d35400; stroke: #ffffff"/>
    <path d="M 14.770641 60.15808 
L 13.824311 58.518988 
L 11.931651 58.518988 
L 10.985321 60.15808 
L 11.931651 61.797172 
L 13.824311 61.797172 
z
" clip-path="url(#pf6fe64684d)" style="fill: #d35400; stroke: #ffffff"/>
    <path d="M 14.770641 56.879896 
L 13.824311 55.240804 
L 11.931651 55.240804 
L 10.985321 56.879896 
L 11.931651 58.518988 
L 13.824311 58.518988 
z
" clip-path="url(#pf6fe64684d)" style="fill: #d35400; stroke: #ffffff"/>
    <path d="M 14.770641 53.601712 
L 13.824311 51.96262 
L 11.931651 51.96262 
L 10.985321 53.601712 
L 11.931651 55.240804 
L 13.824311 55.240804 
z
" clip-path="url(#pf6fe64684d)" style="fill: #d35400; stroke: #ffffff"/>
    <path d="M 14.770641 50.323528 
L 13.824311 48.684436 
L 11.931651 48.684436 
L 10.985321 50.323528 
L 11.931651 51.96262 
L 13.824311 51.96262 
z
" clip-path="url(#pf6fe64684d)" style="fill: #d35400; stroke: #ffffff"/>
    <path d="M 14.770641 47.045344 
L 13.824311 45.406252 
L 11.931651 45.406252 
L 10.985321 47.045344 
L 11.931651 48.684436 
L 13.824311 48.684436 
z
" clip-path="url(#pf6fe64684d)" style="fill: #d35400; stroke: #ffffff"/>
    <path d="M 14.770641 43.76716 
L 13.824311 42.128068 
L 11.931651 42.128068 
L 10.985321 43.76716 
L 11.931651 45.406252 
L 13.824311 45.406252 
z
" clip-path="url(#pf6fe64684d)" style="fill: #d35400; stroke: #ffffff"/>
    <path d="M 14.770641 40.488976 
L 13.824311 38.849884 
L 11.931651 38.849884 
L 10.985321 40.488976 
L 11.931651 42.128068 
L 13.824311 42.128068 
z
" clip-path="url(#pf6fe64684d)" style="fill: #d35400; stroke: #ffffff"/>
    <path d="M 14.770641 37.210792 
L 13.824311 35.5717 
L 11.931651 35.5717 
L 10.985321 37.210792 
L 11.931651 38.849884 
L 13.824311 38.849884 
z
" clip-path="url(#pf6fe64684d)" style="fill: #d35400; stroke: #ffffff"/>
    <path d="M 14.770641 33.932608 
L 13.824311 32.293516 
L 11.931651 32.293516 
L 10.985321 33.932608 
L 11.931651 35.5717 
L 13.824311 35.5717 
z
" clip-path="url(#pf6fe64684d)" style="fill: #d35400; stroke: #ffffff"/>
    <path d="M 14.770641 30.654424 
L 13.824311 29.015332 
L 11.931651 29.015332 
L 10.985321 30.654424 
L 11.931651 32.293516 
L 13.824311 32.293516 
z
" clip-path="url(#pf6fe64684d)" style="fill: #d35400; stroke: #ffffff"/>
    <path d="M 14.770641 27.37624 
L 13.824311 25.737148 
L 11.931651 25.737148 
L 10.985321 27.37624 
L 11.931651 29.015332 
L 13.824311 29.015332 
z
" clip-path="url(#pf6fe64684d)" style="fill: #d35400; stroke: #ffffff"/>
    <path d="M 14.770641 24.098056 
L 13.824311 22.458964 
L 11.931651 22.458964 
L 10.985321 24.098056 
L 11.931651 25.737148 
L 13.824311 25.737148 
z
" clip-path="url(#pf6fe64684d)" style="fill: #d35400; stroke: #ffffff"/>
    <path d="M 14.770641 20.819873 
L 13.824311 19.180781 
L 11.931651 19.180781 
L 10.985321 20.819873 
L 11.931651 22.458964 
L 13.824311 22.458964 
z
" clip-path="url(#pf6fe64684d)" style="fill: #d35400; stroke: #ffffff"/>
    <path d="M 14.770641 17.541689 
L 13.824311 15.902597 
L 11.931651 15.902597 
L 10.985321 17.541689 
L 11.931651 19.180781 
L 13.824311 19.180781 
z
" clip-path="url(#pf6fe64684d)" style="fill: #d35400; stroke: #ffffff"/>
    <path d="M 14.770641 14.263505 
L 13.824311 12.624413 
L 11.931651 12.624413 
L 10.985321 14.263505 
L 11.931651 15.902597 
L 13.824311 15.902597 
z
" clip-path="url(#pf6fe64684d)" style="fill: #d35400; stroke: #ffffff"/>
    <path d="M 14.770641 10.985321 
L 13.824311 9.346229 
L 11.931651 9.346229 
L 10.985321 10.985321 
L 11.931651 12.624413 
L 13.824311 12.624413 
z
" clip-path="url(#pf6fe64684d)" style="fill: #d35400; stroke: #ffffff"/>
   </g>
  </g>
 </g>
 <defs>
  <clipPath id="pf6fe64684d">
   <rect x="7.2" y="7.2" width="14.194953" height="423.9"/>
  </clipPath>
 </defs>
</svg>
